<?xml version="1.0" encoding="utf-8"?>
<!-- Generator: Adobe Illustrator 23.0.1, SVG Export Plug-In . SVG Version: 6.00 Build 0)  -->
<svg version="1.1" id="Layer_1" xmlns="http://www.w3.org/2000/svg" xmlns:xlink="http://www.w3.org/1999/xlink" x="0px" y="0px"
	 viewBox="0 0 64 48" style="enable-background:new 0 0 64 48;" xml:space="preserve">
<style type="text/css">
	.st0{fill:#2699FA;}
</style>
<g>
	<path class="st0" d="M32,48c-7.8,0-15.5,0-23.2,0C3.3,48,0,44.8,0,39.3C0,29.1,0,18.8,0,8.6C0,3.3,3.3,0,8.6,0
		c15.6,0,31.2,0,46.7,0C60.7,0,64,3.3,64,8.6c0,10.3,0,20.7,0,31c0,5.1-3.4,8.4-8.5,8.5C47.7,48,39.9,48,32,48z M32,28
		c7.9-6.6,15.7-13.1,23.8-19.9c-16.1,0-31.6,0-47.7,0C16.3,14.9,24.1,21.4,32,28z"/>
</g>
</svg>
