<?xml version="1.0" encoding="utf-8"?>
<!-- Generator: Adobe Illustrator 23.0.1, SVG Export Plug-In . SVG Version: 6.00 Build 0)  -->
<svg version="1.1" id="Layer_1" xmlns="http://www.w3.org/2000/svg" xmlns:xlink="http://www.w3.org/1999/xlink" x="0px" y="0px"
	 viewBox="0 0 262 262.67" style="enable-background:new 0 0 262 262.67;" xml:space="preserve">
<style type="text/css">
	.st0{fill:#2B9BFA;}
</style>
<g>
	<path class="st0" d="M256.21,262.67c-16.8,0-32.78,0-48.75,0c-62.77,0-125.55-0.41-188.31,0.32c-13.59,0.16-15.83-4.29-16.66-16.98
		c-1.81-27.61,9.84-46.18,33.6-57.45c62.03-29.44,124.98-29.96,186.74-0.5C255.2,203.51,261.67,221.67,256.21,262.67z"/>
	<path class="st0" d="M129.36,136.03c-34.92-0.46-62.71-29.33-62.71-65.17C66.65,36.6,97.13,7.17,131.73,8.02
		c34.49,0.85,63.12,31.14,62.32,65.93C193.27,107.79,163.39,136.47,129.36,136.03z"/>
</g>
</svg>
