<?xml version="1.0" encoding="utf-8"?>
<!-- Generator: Adobe Illustrator 23.0.1, SVG Export Plug-In . SVG Version: 6.00 Build 0)  -->
<svg version="1.1" id="Layer_1" xmlns="http://www.w3.org/2000/svg" xmlns:xlink="http://www.w3.org/1999/xlink" x="0px" y="0px"
	 viewBox="0 0 142.8 163" style="enable-background:new 0 0 142.8 163;" xml:space="preserve">
<style type="text/css">
	.st0{fill:#2799FA;}
</style>
<g>
	<path class="st0" d="M30.4,40.7C33.1,16.2,49,0.4,70.7,0c22.1-0.5,37.6,14.3,42.1,40.7c3.2,0,6.6-0.1,9.9,0
		c10.8,0.4,19.7,8.5,19.9,19.2c0.3,28,0.3,56,0,83.9c-0.1,10.4-9,18.8-19.5,18.9c-34.3,0.2-68.7,0.2-103,0
		c-10.8-0.1-19.6-8.6-19.7-19.4c-0.3-27.8-0.3-55.6,0-83.3c0.1-11.1,9.1-19.1,20.3-19.5C23.8,40.6,26.9,40.7,30.4,40.7z M71.4,122.2
		c11.1,0,20.3-9.1,20.4-20.1c0.1-11-9-20.4-20-20.6c-11.3-0.2-20.8,9.2-20.7,20.4C51.2,113,60.3,122.2,71.4,122.2z M91.3,40.4
		c-0.1-11.2-8.6-19.7-19.5-20.1c-9.1-0.4-21.1,8.1-20.3,20.1C64.7,40.4,78,40.4,91.3,40.4z"/>
</g>
</svg>
